<?xml version="1.0" encoding="UTF-8"?>
<svg version="1.1" xmlns="http://www.w3.org/2000/svg" width="598" height="598">
<path d="M0 0 C22.11 0 44.22 0 67 0 C79.88997872 44.09524725 92.51653969 88.26192216 105.08538532 132.44951308 C107.80988864 142.02764655 110.53628507 151.60524088 113.26278591 161.1828059 C118.84385801 180.78796814 124.42272497 200.39375725 130 220 C132.17026323 216.74460516 133.11946758 213.64798022 134.16943359 209.93701172 C134.37892576 209.21254034 134.58841793 208.48806896 134.80425835 207.74164391 C135.50728389 205.30572525 136.20280254 202.86772611 136.8984375 200.4296875 C137.4015317 198.68107918 137.90510411 196.9326084 138.40911865 195.18426514 C139.49732761 191.40571339 140.58223806 187.62623566 141.66461182 183.8460083 C143.38715461 177.82998658 145.11658475 171.81595905 146.84716797 165.80224609 C148.66888614 159.47042757 150.48997145 153.13842938 152.3085022 146.80569458 C156.74953752 131.34053367 161.20580775 115.87982491 165.671875 100.421875 C165.98563206 99.33579578 166.29938911 98.24971657 166.62265396 97.13072586 C168.18215951 91.73247705 169.74182058 86.33427319 171.30157471 80.93609619 C173.93192396 71.83242652 176.56147487 62.7285267 179.18942642 53.62416458 C179.73043548 51.74996859 180.27153848 49.87579972 180.81274033 48.00165939 C183.40309698 39.03076899 185.98878479 30.05869227 188.54199219 21.07714844 C188.73405935 20.4020265 188.92612652 19.72690456 189.1240139 19.03132439 C189.9935164 15.9739658 190.86068929 12.91598165 191.72390747 9.85684204 C192.01466156 8.83206757 192.30541565 7.80729309 192.60498047 6.75146484 C192.8529538 5.8729184 193.10092712 4.99437195 193.35641479 4.08920288 C194 2 194 2 195 0 C216.45 0 237.9 0 260 0 C256.62499685 12.37501155 256.62499685 12.37501155 255.22924805 16.46337891 C254.91373489 17.39293396 254.59822174 18.32248901 254.27314758 19.2802124 C253.93937607 20.25250793 253.60560455 21.22480347 253.26171875 22.2265625 C252.90462326 23.27555725 252.54752777 24.324552 252.17961121 25.40533447 C251.01873484 28.81297689 249.85316002 32.2189913 248.6875 35.625 C247.87161276 38.01698931 247.05602382 40.40908039 246.24072266 42.80126953 C244.20480555 48.77241758 242.16513556 54.74227508 240.12408447 60.71166992 C238.50152245 65.45821668 236.88156202 70.20564989 235.26171875 74.953125 C233.57214097 79.90412781 231.88207617 84.8549628 230.19018555 89.80517578 C225.78302448 102.69990572 221.38966857 115.59930567 217 128.5 C211.72451776 144.0035288 206.44025221 159.50401609 201.14550781 175.00097656 C196.76102839 187.83445283 192.38641154 200.67126066 188.01748657 213.51004028 C185.01253127 222.3403242 182.00636648 231.17019645 179 240 C178.67114807 240.96593079 178.34229614 241.93186157 178.003479 242.92706299 C176.07533253 248.59017126 174.14601668 254.25287884 172.21508789 259.91503906 C171.62455788 261.64717523 171.03437464 263.37942968 170.44458008 265.11181641 C168.87880659 269.71050906 167.30744041 274.30718264 165.72369385 278.89971924 C165.23962679 280.30456291 164.75717421 281.70996388 164.27630615 283.11590576 C163.60029294 285.08849916 162.9165978 287.05824991 162.23046875 289.02734375 C161.84656982 290.137146 161.4626709 291.24694824 161.06713867 292.39038086 C160 295 160 295 158 297 C155.55758667 297.24050903 155.55758667 297.24050903 152.44873047 297.22705078 C150.70715164 297.22682419 150.70715164 297.22682419 148.9303894 297.22659302 C147.67203278 297.21627045 146.41367615 297.20594788 145.1171875 297.1953125 C143.83264679 297.1924826 142.54810608 297.18965271 141.22463989 297.18673706 C137.80837233 297.17909809 134.39227463 297.15944752 130.97607422 297.1373291 C127.49058327 297.11687624 124.0050649 297.10773655 120.51953125 297.09765625 C113.67961769 297.07620175 106.839817 297.04206271 100 297 C91.83513985 273.95901208 83.87587566 250.85890874 76.2109375 227.64648438 C72.0119869 214.94638144 67.71677616 202.28085634 63.38671875 189.625 C58.54639627 175.47761994 53.73155051 161.32207469 48.95703125 147.15234375 C48.66677126 146.29095984 48.37651127 145.42957592 48.07745552 144.54208946 C46.59551832 140.14359189 45.1142466 135.74487058 43.63339233 131.3460083 C40.48954292 122.00728245 37.34259644 112.66960008 34.1953125 103.33203125 C33.88452696 102.40991096 33.57374142 101.48779068 33.25353813 100.53772736 C26.85900108 81.56628806 20.43356274 62.60544668 13.9855957 43.65209961 C11.98502381 37.7698792 9.99000359 31.88580394 8 26 C7.44291351 24.3537262 7.44291351 24.3537262 6.87457275 22.67419434 C5.74229083 19.32303159 4.61460441 15.9703571 3.48828125 12.6171875 C3.13815475 11.58191925 2.78802826 10.546651 2.42729187 9.48001099 C2.10879776 8.52867279 1.79030365 7.57733459 1.4621582 6.59716797 C1.17911331 5.75572235 0.89606842 4.91427673 0.60444641 4.04733276 C0 2 0 2 0 0 Z " fill="#2DD3BF" transform="translate(27,161)"/>
<path d="M0 0 C20.79 0 41.58 0 63 0 C63.04523211 28.11279824 63.08203873 56.2255668 63.10362434 84.33839226 C63.11391548 97.39308861 63.12793429 110.44776066 63.15087891 123.50244141 C63.17087918 134.88736873 63.18373213 146.27227846 63.18817699 157.65722287 C63.19077316 163.67955336 63.19682982 169.70183351 63.21146011 175.7241478 C63.22514911 181.40563276 63.22920002 187.08704717 63.22621536 192.76854706 C63.22676051 194.84118917 63.23066992 196.91383391 63.23841095 198.98646164 C63.29386382 214.61526679 63.0362022 230.50701297 58.875 245.6875 C58.66472168 246.46657715 58.45444336 247.2456543 58.23779297 248.04833984 C53.24919766 265.32685972 42.03018949 282.24984002 26.19140625 291.26953125 C-2.09175649 306.35091211 -37.48097885 307.70511995 -68.14453125 299.328125 C-87.32398325 293.12054485 -100.8782176 281.78660461 -110.06542969 263.89306641 C-120.24263847 243.27810378 -123.20814292 219.66899877 -123.0625 196.9375 C-123.05747314 195.58138187 -123.05291234 194.22526192 -123.04882812 192.86914062 C-123.03712079 189.57938006 -123.02072211 186.28971406 -123 183 C-115.45501767 182.97687149 -107.91003899 182.95908231 -100.36502934 182.94818783 C-96.86191115 182.94296011 -93.35881715 182.9358645 -89.85571289 182.92456055 C-85.83219159 182.91165794 -81.80869586 182.90677088 -77.78515625 182.90234375 C-76.52163834 182.89718246 -75.25812042 182.89202118 -73.95631409 182.88670349 C-72.795186 182.88662796 -71.63405792 182.88655243 -70.43774414 182.88647461 C-68.8955294 182.88314369 -68.8955294 182.88314369 -67.32215881 182.87974548 C-65 183 -65 183 -64 184 C-63.80603187 186.17445487 -63.67541676 188.35459882 -63.5703125 190.53515625 C-63.49879177 191.90872184 -63.42666572 193.28225602 -63.35400391 194.65576172 C-63.31704407 195.37632751 -63.28008423 196.09689331 -63.24200439 196.83929443 C-63.06187213 223.15379009 -63.06187213 223.15379009 -51.6875 245.4375 C-45.31279139 250.60826848 -39.05623159 251.50329453 -31.125 251.4375 C-30.27808594 251.45748047 -29.43117188 251.47746094 -28.55859375 251.49804688 C-21.03421895 251.49228549 -15.07951634 249.46361307 -9.1875 244.75 C0.77761583 232.22242581 -0.69586791 216.43934345 -0.68115234 201.28051758 C-0.67184381 199.08187495 -0.66167377 196.88323583 -0.65071106 194.68460083 C-0.62350139 188.74123431 -0.60828847 182.79789137 -0.59528303 176.85447907 C-0.57961287 170.63380888 -0.55283507 164.41318656 -0.5272522 158.19255066 C-0.48318596 147.09245216 -0.447483 135.99234804 -0.41623981 124.89220657 C-0.38779656 114.81866286 -0.35479307 104.74514528 -0.31738281 94.67163086 C-0.31492126 94.0084208 -0.31245972 93.34521075 -0.30992357 92.66190342 C-0.29754807 89.33443225 -0.2850873 86.00696141 -0.27259517 82.67949069 C-0.16937747 55.11969165 -0.0815528 27.55987224 0 0 Z " fill="#FFFFFF" transform="translate(397,161)"/>
<path d="M0 0 C20.46 0 40.92 0 62 0 C62 20.13 62 40.26 62 61 C41.54 61 21.08 61 0 61 C0 40.87 0 20.74 0 0 Z " fill="#2DD4BF" transform="translate(508,397)"/>
</svg>
